<?xml version="1.0" encoding="UTF-8"?>
<svg id="Layer_1" data-name="Layer 1" xmlns="http://www.w3.org/2000/svg" viewBox="0 0 596.03 596.33">
  <defs>
    <style>
      .cls-1 {
        fill: #fff;
      }

      .cls-2 {
        stroke: #e6e6e5;
      }

      .cls-2, .cls-3, .cls-4 {
        stroke-miterlimit: 10;
      }

      .cls-2, .cls-4 {
        fill: none;
      }

      .cls-5 {
        letter-spacing: -.07em;
      }

      .cls-3 {
        stroke: #828282;
        stroke-width: .5px;
      }

      .cls-3, .cls-6 {
        fill: #e6e6e5;
      }

      .cls-7 {
        fill: #f3f2f1;
      }

      .cls-8 {
        fill: #231f20;
        font-family: ArialMT, Arial;
      }

      .cls-8, .cls-9, .cls-10 {
        font-size: 12px;
      }

      .cls-11 {
        fill: #207447;
      }

      .cls-9 {
        letter-spacing: -.04em;
      }

      .cls-9, .cls-10 {
        fill: #494646;
        font-family: Arial-BoldMT, Arial;
        font-weight: 700;
      }

      .cls-4 {
        stroke: #c7c6c5;
      }
    </style>
  </defs>
  <rect class="cls-11" x=".25" width="595.28" height="19.09"/>
  <rect class="cls-7" x=".25" y="19.09" width="595.28" height="48.26"/>
  <rect class="cls-6" x=".25" y="67.35" width="595.28" height="47.27"/>
  <rect class="cls-1" x="5.1" y="71.11" width="68.04" height="18" rx=".45" ry=".45"/>
  <rect class="cls-1" x="87.66" y="71.11" width="68.04" height="18" rx=".45" ry=".45"/>
  <rect class="cls-1" x="160.7" y="71.11" width="431.74" height="18" rx=".45" ry=".45"/>
  <rect class="cls-2" x="15.03" y="113.74" width="59.22" height="24.61"/>
  <rect class="cls-2" x="74.25" y="113.74" width="59.22" height="24.61"/>
  <rect class="cls-2" x="133.47" y="113.74" width="59.22" height="24.61"/>
  <rect class="cls-2" x="192.68" y="113.74" width="59.22" height="24.61"/>
  <rect class="cls-2" x="251.9" y="113.74" width="59.22" height="24.61"/>
  <rect class="cls-2" x="311.12" y="113.74" width="59.22" height="24.61"/>
  <rect class="cls-2" x="370.34" y="113.74" width="59.22" height="24.61"/>
  <rect class="cls-2" x="429.55" y="113.74" width="59.22" height="24.61"/>
  <rect class="cls-2" x="488.77" y="113.74" width="59.22" height="24.61"/>
  <rect class="cls-2" x="547.99" y="113.74" width="47.54" height="24.61"/>
  <rect class="cls-2" x="15.03" y="138.34" width="59.22" height="24.61"/>
  <rect class="cls-2" x="74.25" y="138.34" width="59.22" height="24.61"/>
  <rect class="cls-2" x="133.47" y="138.34" width="59.22" height="24.61"/>
  <rect class="cls-2" x="192.68" y="138.34" width="59.22" height="24.61"/>
  <rect class="cls-2" x="251.9" y="138.34" width="59.22" height="24.61"/>
  <rect class="cls-2" x="311.12" y="138.34" width="59.22" height="24.61"/>
  <rect class="cls-2" x="370.34" y="138.34" width="59.22" height="24.61"/>
  <rect class="cls-2" x="429.55" y="138.34" width="59.22" height="24.61"/>
  <rect class="cls-2" x="488.77" y="138.34" width="59.22" height="24.61"/>
  <rect class="cls-2" x="547.99" y="138.34" width="47.54" height="24.61"/>
  <rect class="cls-2" x="15.03" y="162.95" width="59.22" height="24.61"/>
  <rect class="cls-2" x="74.25" y="162.95" width="59.22" height="24.61"/>
  <rect class="cls-2" x="133.47" y="162.95" width="59.22" height="24.61"/>
  <rect class="cls-2" x="192.68" y="162.95" width="59.22" height="24.61"/>
  <rect class="cls-2" x="251.9" y="162.95" width="59.22" height="24.61"/>
  <rect class="cls-2" x="311.12" y="162.95" width="59.22" height="24.61"/>
  <rect class="cls-2" x="370.34" y="162.95" width="59.22" height="24.61"/>
  <rect class="cls-2" x="429.55" y="162.95" width="59.22" height="24.61"/>
  <rect class="cls-2" x="488.77" y="162.95" width="59.22" height="24.61"/>
  <rect class="cls-2" x="547.99" y="162.95" width="47.54" height="24.61"/>
  <rect class="cls-2" x="15.03" y="187.56" width="59.22" height="24.61"/>
  <rect class="cls-2" x="74.25" y="187.56" width="59.22" height="24.61"/>
  <rect class="cls-2" x="133.47" y="187.56" width="59.22" height="24.61"/>
  <rect class="cls-2" x="192.68" y="187.56" width="59.22" height="24.61"/>
  <rect class="cls-2" x="251.9" y="187.56" width="59.22" height="24.61"/>
  <rect class="cls-2" x="311.12" y="187.56" width="59.22" height="24.61"/>
  <rect class="cls-2" x="370.34" y="187.56" width="59.22" height="24.61"/>
  <rect class="cls-2" x="429.55" y="187.56" width="59.22" height="24.61"/>
  <rect class="cls-2" x="488.77" y="187.56" width="59.22" height="24.61"/>
  <rect class="cls-2" x="547.99" y="187.56" width="47.54" height="24.61"/>
  <rect class="cls-2" x="15.03" y="212.16" width="59.22" height="24.61"/>
  <rect class="cls-2" x="74.25" y="212.16" width="59.22" height="24.61"/>
  <rect class="cls-2" x="133.47" y="212.16" width="59.22" height="24.61"/>
  <rect class="cls-2" x="192.68" y="212.16" width="59.22" height="24.61"/>
  <rect class="cls-2" x="251.9" y="212.16" width="59.22" height="24.61"/>
  <rect class="cls-2" x="311.12" y="212.16" width="59.22" height="24.61"/>
  <rect class="cls-2" x="370.34" y="212.16" width="59.22" height="24.61"/>
  <rect class="cls-2" x="429.55" y="212.16" width="59.22" height="24.61"/>
  <rect class="cls-2" x="488.77" y="212.16" width="59.22" height="24.61"/>
  <rect class="cls-2" x="547.99" y="212.16" width="47.54" height="24.61"/>
  <rect class="cls-2" x="15.03" y="236.77" width="59.22" height="24.61"/>
  <rect class="cls-2" x="74.25" y="236.77" width="59.22" height="24.61"/>
  <rect class="cls-2" x="133.47" y="236.77" width="59.22" height="24.61"/>
  <rect class="cls-2" x="192.68" y="236.77" width="59.22" height="24.61"/>
  <rect class="cls-2" x="251.9" y="236.77" width="59.22" height="24.61"/>
  <rect class="cls-2" x="311.12" y="236.77" width="59.22" height="24.61"/>
  <rect class="cls-2" x="370.34" y="236.77" width="59.22" height="24.61"/>
  <rect class="cls-2" x="429.55" y="236.77" width="59.22" height="24.61"/>
  <rect class="cls-2" x="488.77" y="236.77" width="59.22" height="24.61"/>
  <rect class="cls-2" x="547.99" y="236.77" width="47.54" height="24.61"/>
  <rect class="cls-2" x="15.03" y="261.38" width="59.22" height="24.61"/>
  <rect class="cls-2" x="74.25" y="261.38" width="59.22" height="24.61"/>
  <rect class="cls-2" x="133.47" y="261.38" width="59.22" height="24.61"/>
  <rect class="cls-2" x="192.68" y="261.38" width="59.22" height="24.61"/>
  <rect class="cls-2" x="251.9" y="261.38" width="59.22" height="24.61"/>
  <rect class="cls-2" x="311.12" y="261.38" width="59.22" height="24.61"/>
  <rect class="cls-2" x="370.34" y="261.38" width="59.22" height="24.61"/>
  <rect class="cls-2" x="429.55" y="261.38" width="59.22" height="24.61"/>
  <rect class="cls-2" x="488.77" y="261.38" width="59.22" height="24.61"/>
  <rect class="cls-2" x="547.99" y="261.38" width="47.54" height="24.61"/>
  <rect class="cls-2" x="15.03" y="285.98" width="59.22" height="24.61"/>
  <rect class="cls-2" x="74.25" y="285.98" width="59.22" height="24.61"/>
  <rect class="cls-2" x="133.47" y="285.98" width="59.22" height="24.61"/>
  <rect class="cls-2" x="192.68" y="285.98" width="59.22" height="24.61"/>
  <rect class="cls-2" x="251.9" y="285.98" width="59.22" height="24.61"/>
  <rect class="cls-2" x="311.12" y="285.98" width="59.22" height="24.61"/>
  <rect class="cls-2" x="370.34" y="285.98" width="59.22" height="24.61"/>
  <rect class="cls-2" x="429.55" y="285.98" width="59.22" height="24.61"/>
  <rect class="cls-2" x="488.77" y="285.98" width="59.22" height="24.61"/>
  <rect class="cls-2" x="547.99" y="285.98" width="47.54" height="24.61"/>
  <rect class="cls-2" x="15.03" y="310.59" width="59.22" height="24.61"/>
  <rect class="cls-2" x="74.25" y="310.59" width="59.22" height="24.61"/>
  <rect class="cls-2" x="133.47" y="310.59" width="59.22" height="24.61"/>
  <rect class="cls-2" x="192.68" y="310.59" width="59.22" height="24.61"/>
  <rect class="cls-2" x="251.9" y="310.59" width="59.22" height="24.61"/>
  <rect class="cls-2" x="311.12" y="310.59" width="59.22" height="24.61"/>
  <rect class="cls-2" x="370.34" y="310.59" width="59.22" height="24.61"/>
  <rect class="cls-2" x="429.55" y="310.59" width="59.22" height="24.61"/>
  <rect class="cls-2" x="488.77" y="310.59" width="59.22" height="24.61"/>
  <rect class="cls-2" x="547.99" y="310.59" width="47.54" height="24.61"/>
  <rect class="cls-2" x="15.03" y="335.2" width="59.22" height="24.61"/>
  <rect class="cls-2" x="74.25" y="335.2" width="59.22" height="24.61"/>
  <rect class="cls-2" x="133.47" y="335.2" width="59.22" height="24.61"/>
  <rect class="cls-2" x="192.68" y="335.2" width="59.22" height="24.61"/>
  <rect class="cls-2" x="251.9" y="335.2" width="59.22" height="24.61"/>
  <rect class="cls-2" x="311.12" y="335.2" width="59.22" height="24.61"/>
  <rect class="cls-2" x="370.34" y="335.2" width="59.22" height="24.61"/>
  <rect class="cls-2" x="429.55" y="335.2" width="59.22" height="24.61"/>
  <rect class="cls-2" x="488.77" y="335.2" width="59.22" height="24.61"/>
  <rect class="cls-2" x="547.99" y="335.2" width="47.54" height="24.61"/>
  <rect class="cls-2" x="15.03" y="359.8" width="59.22" height="24.61"/>
  <rect class="cls-2" x="74.25" y="359.8" width="59.22" height="24.61"/>
  <rect class="cls-2" x="133.47" y="359.8" width="59.22" height="24.61"/>
  <rect class="cls-2" x="192.68" y="359.8" width="59.22" height="24.61"/>
  <rect class="cls-2" x="251.9" y="359.8" width="59.22" height="24.61"/>
  <rect class="cls-2" x="311.12" y="359.8" width="59.22" height="24.61"/>
  <rect class="cls-2" x="370.34" y="359.8" width="59.22" height="24.61"/>
  <rect class="cls-2" x="429.55" y="359.8" width="59.22" height="24.61"/>
  <rect class="cls-2" x="488.77" y="359.8" width="59.22" height="24.61"/>
  <rect class="cls-2" x="547.99" y="359.8" width="47.54" height="24.61"/>
  <rect class="cls-2" x="15.03" y="384.41" width="59.22" height="24.61"/>
  <rect class="cls-2" x="74.25" y="384.41" width="59.22" height="24.61"/>
  <rect class="cls-2" x="133.47" y="384.41" width="59.22" height="24.61"/>
  <rect class="cls-2" x="192.68" y="384.41" width="59.22" height="24.61"/>
  <rect class="cls-2" x="251.9" y="384.41" width="59.22" height="24.61"/>
  <rect class="cls-2" x="311.12" y="384.41" width="59.22" height="24.61"/>
  <rect class="cls-2" x="370.34" y="384.41" width="59.22" height="24.61"/>
  <rect class="cls-2" x="429.55" y="384.41" width="59.22" height="24.61"/>
  <rect class="cls-2" x="488.77" y="384.41" width="59.22" height="24.61"/>
  <rect class="cls-2" x="547.99" y="384.41" width="47.54" height="24.61"/>
  <rect class="cls-2" x="15.03" y="409.02" width="59.22" height="24.61"/>
  <rect class="cls-2" x="74.25" y="409.02" width="59.22" height="24.61"/>
  <rect class="cls-2" x="133.47" y="409.02" width="59.22" height="24.61"/>
  <rect class="cls-2" x="192.68" y="409.02" width="59.22" height="24.61"/>
  <rect class="cls-2" x="251.9" y="409.02" width="59.22" height="24.61"/>
  <rect class="cls-2" x="311.12" y="409.02" width="59.22" height="24.61"/>
  <rect class="cls-2" x="370.34" y="409.02" width="59.22" height="24.61"/>
  <rect class="cls-2" x="429.55" y="409.02" width="59.22" height="24.61"/>
  <rect class="cls-2" x="488.77" y="409.02" width="59.22" height="24.61"/>
  <rect class="cls-2" x="547.99" y="409.02" width="47.54" height="24.61"/>
  <rect class="cls-2" x="15.03" y="433.62" width="59.22" height="24.61"/>
  <rect class="cls-2" x="74.25" y="433.62" width="59.22" height="24.61"/>
  <rect class="cls-2" x="133.47" y="433.62" width="59.22" height="24.61"/>
  <rect class="cls-2" x="192.68" y="433.62" width="59.22" height="24.61"/>
  <rect class="cls-2" x="251.9" y="433.62" width="59.22" height="24.61"/>
  <rect class="cls-2" x="311.12" y="433.62" width="59.22" height="24.61"/>
  <rect class="cls-2" x="370.34" y="433.62" width="59.22" height="24.61"/>
  <rect class="cls-2" x="429.55" y="433.62" width="59.22" height="24.61"/>
  <rect class="cls-2" x="488.77" y="433.62" width="59.22" height="24.61"/>
  <rect class="cls-2" x="547.99" y="433.62" width="47.54" height="24.61"/>
  <rect class="cls-2" x="15.03" y="458.23" width="59.22" height="24.61"/>
  <rect class="cls-2" x="74.25" y="458.23" width="59.22" height="24.61"/>
  <rect class="cls-2" x="133.47" y="458.23" width="59.22" height="24.61"/>
  <rect class="cls-2" x="192.68" y="458.23" width="59.22" height="24.61"/>
  <rect class="cls-2" x="251.9" y="458.23" width="59.22" height="24.61"/>
  <rect class="cls-2" x="311.12" y="458.23" width="59.22" height="24.61"/>
  <rect class="cls-2" x="370.34" y="458.23" width="59.22" height="24.61"/>
  <rect class="cls-2" x="429.55" y="458.23" width="59.22" height="24.61"/>
  <rect class="cls-2" x="488.77" y="458.23" width="59.22" height="24.61"/>
  <rect class="cls-2" x="547.99" y="458.23" width="47.54" height="24.61"/>
  <rect class="cls-2" x="15.03" y="482.84" width="59.22" height="24.61"/>
  <rect class="cls-2" x="74.25" y="482.84" width="59.22" height="24.61"/>
  <rect class="cls-2" x="133.47" y="482.84" width="59.22" height="24.61"/>
  <rect class="cls-2" x="192.68" y="482.84" width="59.22" height="24.61"/>
  <rect class="cls-2" x="251.9" y="482.84" width="59.22" height="24.61"/>
  <rect class="cls-2" x="311.12" y="482.84" width="59.22" height="24.61"/>
  <rect class="cls-2" x="370.34" y="482.84" width="59.22" height="24.61"/>
  <rect class="cls-2" x="429.55" y="482.84" width="59.22" height="24.61"/>
  <rect class="cls-2" x="488.77" y="482.84" width="59.22" height="24.61"/>
  <rect class="cls-2" x="547.99" y="482.84" width="47.54" height="24.61"/>
  <rect class="cls-2" x="15.03" y="507.44" width="59.22" height="24.61"/>
  <rect class="cls-2" x="74.25" y="507.44" width="59.22" height="24.61"/>
  <rect class="cls-2" x="133.47" y="507.44" width="59.22" height="24.61"/>
  <rect class="cls-2" x="192.68" y="507.44" width="59.22" height="24.61"/>
  <rect class="cls-2" x="251.9" y="507.44" width="59.22" height="24.61"/>
  <rect class="cls-2" x="311.12" y="507.44" width="59.22" height="24.61"/>
  <rect class="cls-2" x="370.34" y="507.44" width="59.22" height="24.61"/>
  <rect class="cls-2" x="429.55" y="507.44" width="59.22" height="24.61"/>
  <rect class="cls-2" x="488.77" y="507.44" width="59.22" height="24.61"/>
  <rect class="cls-2" x="547.99" y="507.44" width="47.54" height="24.61"/>
  <rect class="cls-2" x="15.03" y="532.05" width="59.22" height="24.61"/>
  <rect class="cls-2" x="74.25" y="532.05" width="59.22" height="24.61"/>
  <rect class="cls-2" x="133.47" y="532.05" width="59.22" height="24.61"/>
  <rect class="cls-2" x="192.68" y="532.05" width="59.22" height="24.61"/>
  <rect class="cls-2" x="251.9" y="532.05" width="59.22" height="24.61"/>
  <rect class="cls-2" x="311.12" y="532.05" width="59.22" height="24.61"/>
  <rect class="cls-2" x="370.34" y="532.05" width="59.22" height="24.61"/>
  <rect class="cls-2" x="429.55" y="532.05" width="59.22" height="24.61"/>
  <rect class="cls-2" x="488.77" y="532.05" width="59.22" height="24.61"/>
  <rect class="cls-2" x="547.99" y="532.05" width="47.54" height="24.61"/>
  <rect class="cls-2" x="15.03" y="556.65" width="59.22" height="24.61"/>
  <rect class="cls-2" x="74.25" y="556.65" width="59.22" height="24.61"/>
  <rect class="cls-2" x="133.47" y="556.65" width="59.22" height="24.61"/>
  <rect class="cls-2" x="192.68" y="556.65" width="59.22" height="24.61"/>
  <rect class="cls-2" x="251.9" y="556.65" width="59.22" height="24.61"/>
  <rect class="cls-2" x="311.12" y="556.65" width="59.22" height="24.61"/>
  <rect class="cls-2" x="370.34" y="556.65" width="59.22" height="24.61"/>
  <rect class="cls-2" x="429.55" y="556.65" width="59.22" height="24.61"/>
  <rect class="cls-2" x="488.77" y="556.65" width="59.22" height="24.61"/>
  <rect class="cls-2" x="547.99" y="556.65" width="47.54" height="24.61"/>
  <rect class="cls-2" x="15.03" y="581.26" width="59.22" height="14.01"/>
  <rect class="cls-2" x="74.25" y="581.26" width="59.22" height="14.01"/>
  <rect class="cls-2" x="133.47" y="581.26" width="59.22" height="14.01"/>
  <rect class="cls-2" x="192.68" y="581.26" width="59.22" height="14.01"/>
  <rect class="cls-2" x="251.9" y="581.26" width="59.22" height="14.01"/>
  <rect class="cls-2" x="311.12" y="581.26" width="59.22" height="14.01"/>
  <rect class="cls-2" x="370.34" y="581.26" width="59.22" height="14.01"/>
  <rect class="cls-2" x="429.55" y="581.26" width="59.22" height="14.01"/>
  <rect class="cls-2" x="488.77" y="581.26" width="59.22" height="14.01"/>
  <rect class="cls-2" x="547.99" y="581.26" width="47.54" height="14.01"/>
  <text class="cls-9" transform="translate(40.53 109.19)"><tspan x="0" y="0">A</tspan></text>
  <text class="cls-10" transform="translate(99.52 109.19)"><tspan x="0" y="0">B</tspan></text>
  <text class="cls-10" transform="translate(158.74 109.11)"><tspan x="0" y="0">C</tspan></text>
  <text class="cls-10" transform="translate(217.96 109.19)"><tspan x="0" y="0">D</tspan></text>
  <text class="cls-10" transform="translate(277.51 109.11)"><tspan x="0" y="0">E</tspan></text>
  <text class="cls-10" transform="translate(337.06 109.11)"><tspan x="0" y="0">F</tspan></text>
  <text class="cls-10" transform="translate(395.28 109.11)"><tspan x="0" y="0">G</tspan></text>
  <text class="cls-10" transform="translate(454.83 109.11)"><tspan x="0" y="0">H</tspan></text>
  <text class="cls-10" transform="translate(516.71 109.11)"><tspan x="0" y="0">I</tspan></text>
  <text class="cls-10" transform="translate(574.26 109.11)"><tspan x="0" y="0">J</tspan></text>
  <rect class="cls-3" x=".25" y="114.63" width="14.78" height="23.67"/>
  <rect class="cls-3" x=".25" y="138.3" width="14.78" height="24.56"/>
  <rect class="cls-3" x=".25" y="162.86" width="14.78" height="24.56"/>
  <rect class="cls-3" x=".25" y="187.42" width="14.78" height="24.56"/>
  <rect class="cls-3" x=".25" y="211.98" width="14.78" height="24.56"/>
  <rect class="cls-3" x=".25" y="236.77" width="14.78" height="24.34"/>
  <rect class="cls-3" x=".25" y="261.11" width="14.78" height="24.56"/>
  <rect class="cls-3" x=".25" y="285.67" width="14.78" height="24.92"/>
  <rect class="cls-3" x=".25" y="310.59" width="14.78" height="24.61"/>
  <rect class="cls-3" x=".25" y="335.37" width="14.78" height="24.43"/>
  <rect class="cls-3" x=".25" y="359.8" width="14.78" height="24.61"/>
  <rect class="cls-3" x=".25" y="384.41" width="14.78" height="24.61"/>
  <rect class="cls-3" x=".25" y="409.02" width="14.78" height="24.61"/>
  <rect class="cls-3" x=".25" y="433.62" width="14.78" height="24.61"/>
  <rect class="cls-3" x=".25" y="458.23" width="14.78" height="24.61"/>
  <rect class="cls-3" x=".25" y="482.84" width="14.78" height="24.61"/>
  <rect class="cls-3" x=".25" y="507.44" width="14.78" height="24.61"/>
  <rect class="cls-3" x=".25" y="532.05" width="14.78" height="24.61"/>
  <rect class="cls-3" x=".25" y="556.65" width="14.78" height="24.26"/>
  <rect class="cls-3" x=".25" y="580.91" width="14.78" height="15.16"/>
  <text class="cls-8" transform="translate(4.3 131.38)"><tspan x="0" y="0">1</tspan></text>
  <text class="cls-8" transform="translate(4.3 154.13)"><tspan x="0" y="0">2</tspan></text>
  <text class="cls-8" transform="translate(4.3 178.8)"><tspan x="0" y="0">3</tspan></text>
  <text class="cls-8" transform="translate(4.3 203.25)"><tspan x="0" y="0">4</tspan></text>
  <text class="cls-8" transform="translate(4.3 227.81)"><tspan x="0" y="0">5</tspan></text>
  <text class="cls-8" transform="translate(4.3 252.62)"><tspan x="0" y="0">6</tspan></text>
  <text class="cls-8" transform="translate(4.3 277.23)"><tspan x="0" y="0">7</tspan></text>
  <text class="cls-8" transform="translate(4.3 302.48)"><tspan x="0" y="0">8</tspan></text>
  <text class="cls-8" transform="translate(4.3 326.44)"><tspan x="0" y="0">9</tspan></text>
  <text class="cls-8" transform="translate(.97 350.62)"><tspan x="0" y="0">10</tspan></text>
  <text class="cls-8" transform="translate(1.41 375.65)"><tspan class="cls-5" x="0" y="0">1</tspan><tspan x="5.78" y="0">1</tspan></text>
  <text class="cls-8" transform="translate(.97 400.26)"><tspan x="0" y="0">12</tspan></text>
  <text class="cls-8" transform="translate(.62 424.31)"><tspan x="0" y="0">13</tspan></text>
  <text class="cls-8" transform="translate(.62 449.47)"><tspan x="0" y="0">14</tspan></text>
  <text class="cls-8" transform="translate(.62 474.08)"><tspan x="0" y="0">15</tspan></text>
  <text class="cls-8" transform="translate(.62 498.69)"><tspan x="0" y="0">16</tspan></text>
  <text class="cls-8" transform="translate(.62 522.56)"><tspan x="0" y="0">17</tspan></text>
  <text class="cls-8" transform="translate(.62 547.9)"><tspan x="0" y="0">18</tspan></text>
  <text class="cls-8" transform="translate(.62 573.86)"><tspan x="0" y="0">19</tspan></text>
  <line class="cls-4" x1="80.13" y1="70.88" x2="80.13" y2="88.88"/>
  <line class="cls-4" x1="74.25" y1="96.62" x2="74.25" y2="114.63"/>
  <line class="cls-4" x1="133.47" y1="96.62" x2="133.47" y2="114.63"/>
  <line class="cls-4" x1="192.68" y1="96.62" x2="192.68" y2="114.63"/>
  <line class="cls-4" x1="251.9" y1="96.62" x2="251.9" y2="114.63"/>
  <line class="cls-4" x1="311.12" y1="96.62" x2="311.12" y2="114.63"/>
  <line class="cls-4" x1="370.34" y1="96.62" x2="370.34" y2="114.63"/>
  <line class="cls-4" x1="429.55" y1="96.62" x2="429.55" y2="114.63"/>
  <line class="cls-4" x1="488.77" y1="96.62" x2="488.77" y2="114.63"/>
  <line class="cls-4" x1="547.99" y1="96.62" x2="547.99" y2="114.63"/>
</svg>